<svg width="32" height="32" viewBox="0 0 32 32" fill="none" xmlns="http://www.w3.org/2000/svg">
<path d="M32 15.9916C32 7.16411 24.8321 0 16 0C7.16787 0 0 7.16411 0 15.9916C0 23.9792 5.84964 30.5998 13.5118 31.7856V20.603H9.42533V15.9916H13.5118V12.4672C13.5118 8.46518 15.8847 6.24183 19.5427 6.24183C21.2894 6.24183 23.1019 6.57122 23.1019 6.57122V10.4744H21.0917C19.0978 10.4744 18.4717 11.7261 18.4717 12.9777V15.9751H22.9207L22.2122 20.5865H18.4717V31.7691C26.1504 30.5998 32 23.9792 32 15.9916Z" fill="#1877F2"/>
<path d="M22.2282 20.6197L22.9368 16.0083H18.4877V13.0109C18.4877 11.7428 19.1304 10.5076 21.1077 10.5076H23.118V6.58793C23.118 6.58793 21.3055 6.25854 19.5588 6.25854C15.9007 6.25854 13.5279 8.48189 13.5279 12.4839V16.0083H9.44141V20.6197H13.5279V31.8023C14.3353 31.934 15.1757 31.9999 16.0161 31.9999C16.8564 31.9999 17.6968 31.934 18.5042 31.8023V20.6197H22.2282Z" fill="white"/>
</svg>
