<svg width="12" height="14" viewBox="0 0 12 14" fill="none" xmlns="http://www.w3.org/2000/svg">
<path d="M1.5 12.1429H3.75V7.57142H8.25V12.1429H10.5V5.28571L6 1.85714L1.5 5.28571V12.1429ZM1.5 13.6667C1.0875 13.6667 0.7345 13.5176 0.441 13.2194C0.147 12.9208 0 12.5619 0 12.1429V5.28571C0 5.04444 0.0532499 4.81587 0.15975 4.6C0.26575 4.38412 0.4125 4.20634 0.6 4.06666L5.1 0.63809C5.2375 0.536503 5.38125 0.460312 5.53125 0.409519C5.68125 0.358725 5.8375 0.333328 6 0.333328C6.1625 0.333328 6.31875 0.358725 6.46875 0.409519C6.61875 0.460312 6.7625 0.536503 6.9 0.63809L11.4 4.06666C11.5875 4.20634 11.7345 4.38412 11.841 4.6C11.947 4.81587 12 5.04444 12 5.28571V12.1429C12 12.5619 11.8533 12.9208 11.5597 13.2194C11.2657 13.5176 10.9125 13.6667 10.5 13.6667H6.75V9.09523H5.25V13.6667H1.5Z" fill="#36CFA1"/>
</svg>
