<svg width="117" height="34" viewBox="0 0 117 34" fill="none" xmlns="http://www.w3.org/2000/svg">
<path d="M10.48 0.97998H5.36L0 32.18H5.12L10.48 0.97998ZM21.4 22.98C21.6133 21.22 21.4533 19.62 20.92 18.18C20.4133 16.74 19.5867 15.58 18.44 14.7C17.2933 13.82 15.8933 13.38 14.24 13.38C13.0133 13.38 11.88 13.6333 10.84 14.14C9.8 14.6466 8.88 15.34 8.08 16.22C7.28 17.1 6.62667 18.1133 6.12 19.26C5.61333 20.4066 5.26667 21.6466 5.08 22.98C4.92 24.2066 4.92 25.3933 5.08 26.54C5.24 27.6866 5.57333 28.7133 6.08 29.62C6.58667 30.5266 7.26667 31.2466 8.12 31.78C9 32.3133 10.0533 32.58 11.28 32.58C12.96 32.58 14.52 32.1666 15.96 31.34C17.4 30.4866 18.6 29.34 19.56 27.9C20.5467 26.4333 21.16 24.7933 21.4 22.98ZM16.12 22.98C15.96 23.94 15.5867 24.8333 15 25.66C14.44 26.46 13.7467 27.1 12.92 27.58C12.0933 28.06 11.2 28.2866 10.24 28.26C9.6 28.2333 9.04 28.0866 8.56 27.82C8.08 27.5266 7.68 27.14 7.36 26.66C7.06667 26.1533 6.85333 25.5933 6.72 24.98C6.61333 24.34 6.6 23.6733 6.68 22.98C6.81333 22.2333 7.05333 21.54 7.4 20.9C7.77333 20.26 8.21333 19.7 8.72 19.22C9.25333 18.7133 9.82667 18.3266 10.44 18.06C11.0533 17.7933 11.68 17.66 12.32 17.66C13.2533 17.6866 14.0267 17.9533 14.64 18.46C15.2533 18.94 15.6933 19.58 15.96 20.38C16.2267 21.18 16.28 22.0466 16.12 22.98Z" fill="#242B31"/>
<path d="M25.5994 25.82L23.0794 29.06C23.7727 29.7266 24.546 30.3533 25.3994 30.94C26.2794 31.5 27.2527 31.9533 28.3194 32.3C29.4127 32.6466 30.6127 32.82 31.9194 32.82C34.026 32.82 35.6794 32.3133 36.8794 31.3C38.0794 30.26 38.6794 28.82 38.6794 26.98C38.6794 25.86 38.426 24.9533 37.9194 24.26C37.4127 23.5666 36.7327 22.9933 35.8794 22.54C35.0527 22.06 34.146 21.6333 33.1594 21.26C32.3594 20.9133 31.6394 20.62 30.9994 20.38C30.386 20.14 29.906 19.8733 29.5594 19.58C29.2394 19.26 29.0794 18.9 29.0794 18.5C29.0794 18.0466 29.2394 17.7133 29.5594 17.5C29.906 17.26 30.3727 17.14 30.9594 17.14C31.8394 17.14 32.7327 17.3666 33.6394 17.82C34.5727 18.2733 35.3727 18.86 36.0394 19.58L38.3194 16.38C37.7327 15.7933 37.0527 15.2866 36.2794 14.86C35.506 14.4066 34.666 14.0466 33.7594 13.78C32.8527 13.5133 31.8794 13.38 30.8394 13.38C29.6127 13.38 28.4927 13.58 27.4794 13.98C26.4927 14.3533 25.706 14.9266 25.1194 15.7C24.5327 16.4466 24.2394 17.3666 24.2394 18.46C24.2394 19.6066 24.4927 20.5533 24.9994 21.3C25.5327 22.02 26.1994 22.6066 26.9994 23.06C27.7994 23.4866 28.626 23.86 29.4794 24.18C30.386 24.4733 31.1327 24.7533 31.7194 25.02C32.306 25.2866 32.746 25.5933 33.0394 25.94C33.3594 26.26 33.5194 26.66 33.5194 27.14C33.5194 27.6733 33.3327 28.1 32.9594 28.42C32.586 28.7133 32.0527 28.86 31.3594 28.86C30.826 28.86 30.2527 28.7533 29.6394 28.54C29.0527 28.3266 28.426 28.0066 27.7594 27.58C27.0927 27.1266 26.3727 26.54 25.5994 25.82Z" fill="#242B31"/>
<path d="M50.9375 32.58C53.1508 32.58 55.0442 32.1533 56.6175 31.3C58.2175 30.42 59.4975 29.1133 60.4575 27.38L55.9375 25.98C55.4042 26.86 54.7242 27.5266 53.8975 27.98C53.0975 28.4066 52.1242 28.62 50.9775 28.62C49.9642 28.62 49.0975 28.3933 48.3775 27.94C47.6575 27.4866 47.1108 26.8333 46.7375 25.98C46.3908 25.1266 46.2175 24.0866 46.2175 22.86C46.2442 21.58 46.4308 20.5133 46.7775 19.66C47.1508 18.78 47.6708 18.1266 48.3375 17.7C49.0308 17.2466 49.8842 17.02 50.8975 17.02C51.7242 17.02 52.4442 17.2066 53.0575 17.58C53.6708 17.9533 54.1375 18.46 54.4575 19.1C54.8042 19.74 54.9775 20.5133 54.9775 21.42C54.9775 21.6066 54.9242 21.8466 54.8175 22.14C54.7375 22.4066 54.6442 22.62 54.5375 22.78L55.9375 20.94H43.9775V24.14H60.4575C60.4842 23.98 60.4975 23.7666 60.4975 23.5C60.5242 23.2333 60.5375 22.98 60.5375 22.74C60.5375 20.7666 60.1642 19.0866 59.4175 17.7C58.6708 16.2866 57.5775 15.22 56.1375 14.5C54.7242 13.7533 53.0042 13.38 50.9775 13.38C48.9508 13.38 47.1908 13.78 45.6975 14.58C44.2042 15.3533 43.0442 16.46 42.2175 17.9C41.4175 19.3133 41.0175 21.0066 41.0175 22.98C41.0175 24.9266 41.4175 26.62 42.2175 28.06C43.0442 29.4733 44.2042 30.58 45.6975 31.38C47.1908 32.18 48.9375 32.58 50.9375 32.58Z" fill="#242B31"/>
<path d="M76.325 20.98V32.18H81.685V20.42C81.685 18.2066 81.1517 16.4866 80.085 15.26C79.0183 14.0066 77.3917 13.38 75.205 13.38C73.8983 13.38 72.7783 13.66 71.845 14.22C70.9383 14.7533 70.205 15.54 69.645 16.58V13.78H64.445V32.18H69.645V20.98C69.645 20.2066 69.7917 19.54 70.085 18.98C70.3783 18.42 70.805 17.9933 71.365 17.7C71.925 17.38 72.565 17.22 73.285 17.22C74.3517 17.22 75.125 17.54 75.605 18.18C76.085 18.82 76.325 19.7533 76.325 20.98Z" fill="#242B31"/>
<path d="M109.868 29.82C109.868 30.6733 110.175 31.42 110.788 32.06C111.401 32.7 112.175 33.02 113.108 33.02C114.068 33.02 114.855 32.7 115.468 32.06C116.081 31.42 116.388 30.6733 116.388 29.82C116.388 28.9133 116.081 28.1533 115.468 27.54C114.855 26.9 114.068 26.58 113.108 26.58C112.175 26.58 111.401 26.9 110.788 27.54C110.175 28.1533 109.868 28.9133 109.868 29.82Z" fill="#242B31"/>
<path d="M96.7715 1.17993H101.891L107.251 32.3799H102.131L96.7715 1.17993ZM85.8515 23.1799C85.6381 21.4199 85.7981 19.8199 86.3315 18.3799C86.8381 16.9399 87.6648 15.7799 88.8115 14.8999C89.9581 14.0199 91.3581 13.5799 93.0115 13.5799C94.2381 13.5799 95.3715 13.8333 96.4115 14.3399C97.4515 14.8466 98.3715 15.5399 99.1715 16.4199C99.9715 17.2999 100.625 18.3133 101.131 19.4599C101.638 20.6066 101.985 21.8466 102.171 23.1799C102.331 24.4066 102.331 25.5933 102.171 26.7399C102.011 27.8866 101.678 28.9133 101.171 29.8199C100.665 30.7266 99.9848 31.4466 99.1315 31.9799C98.2515 32.5133 97.1981 32.7799 95.9715 32.7799C94.2915 32.7799 92.7315 32.3666 91.2915 31.5399C89.8515 30.6866 88.6515 29.5399 87.6915 28.0999C86.7048 26.6333 86.0915 24.9933 85.8515 23.1799ZM91.1315 23.1799C91.2915 24.1399 91.6648 25.0333 92.2515 25.8599C92.8115 26.6599 93.5048 27.2999 94.3315 27.7799C95.1581 28.2599 96.0515 28.4866 97.0115 28.4599C97.6515 28.4333 98.2115 28.2866 98.6915 28.0199C99.1715 27.7266 99.5715 27.3399 99.8915 26.8599C100.185 26.3533 100.398 25.7933 100.531 25.1799C100.638 24.5399 100.651 23.8733 100.571 23.1799C100.438 22.4333 100.198 21.7399 99.8515 21.0999C99.4781 20.4599 99.0381 19.8999 98.5315 19.4199C97.9981 18.9133 97.4248 18.5266 96.8115 18.2599C96.1981 17.9933 95.5715 17.8599 94.9315 17.8599C93.9981 17.8866 93.2248 18.1533 92.6115 18.6599C91.9981 19.1399 91.5581 19.7799 91.2915 20.5799C91.0248 21.3799 90.9715 22.2466 91.1315 23.1799Z" fill="#242B31"/>
</svg>
