<svg width="32" height="32" viewBox="0 0 32 32" fill="none" xmlns="http://www.w3.org/2000/svg">
<path d="M16 32C24.8366 32 32 24.8366 32 16C32 7.16344 24.8366 0 16 0C7.16344 0 0 7.16344 0 16C0 24.8366 7.16344 32 16 32Z" fill="#FF4500"/>
<path d="M26.6674 16.0003C26.6674 14.7091 25.6195 13.6611 24.3282 13.6611C23.692 13.6611 23.1306 13.9044 22.7189 14.3161C21.1282 13.1746 18.9201 12.426 16.4873 12.3325L17.554 7.33597L21.016 8.06579C21.0534 8.94532 21.7832 9.65643 22.6815 9.65643C23.5984 9.65643 24.347 8.9079 24.347 7.99094C24.347 7.07398 23.5984 6.32544 22.6815 6.32544C22.0265 6.32544 21.4651 6.69971 21.2031 7.26111L17.3294 6.43772C17.2171 6.41901 17.1049 6.43772 17.0113 6.49386C16.9177 6.55 16.8616 6.64357 16.8242 6.75585L15.6452 12.3325C13.1563 12.4073 10.9294 13.1371 9.32006 14.3161C8.90836 13.9231 8.32825 13.6611 7.7107 13.6611C6.41947 13.6611 5.37152 14.7091 5.37152 16.0003C5.37152 16.9547 5.93292 17.7594 6.75632 18.1336C6.71889 18.3582 6.70018 18.6015 6.70018 18.8447C6.70018 22.4377 10.8733 25.3383 16.0382 25.3383C21.2031 25.3383 25.3762 22.4377 25.3762 18.8447C25.3762 18.6015 25.3575 18.3769 25.3201 18.1523C26.0873 17.7781 26.6674 16.9547 26.6674 16.0003ZM10.6674 17.6658C10.6674 16.7488 11.416 16.0003 12.3329 16.0003C13.2499 16.0003 13.9984 16.7488 13.9984 17.6658C13.9984 18.5827 13.2499 19.3313 12.3329 19.3313C11.416 19.3313 10.6674 18.5827 10.6674 17.6658ZM19.968 22.0635C18.8265 23.205 16.6557 23.2798 16.0195 23.2798C15.3832 23.2798 13.1937 23.1863 12.0709 22.0635C11.9025 21.895 11.9025 21.6143 12.0709 21.4459C12.2394 21.2775 12.5201 21.2775 12.6885 21.4459C13.3996 22.157 14.9341 22.419 16.0382 22.419C17.1423 22.419 18.6581 22.157 19.3879 21.4459C19.5563 21.2775 19.837 21.2775 20.0054 21.4459C20.1364 21.633 20.1364 21.895 19.968 22.0635ZM19.6686 19.3313C18.7516 19.3313 18.0031 18.5827 18.0031 17.6658C18.0031 16.7488 18.7516 16.0003 19.6686 16.0003C20.5856 16.0003 21.3341 16.7488 21.3341 17.6658C21.3341 18.5827 20.5856 19.3313 19.6686 19.3313Z" fill="white"/>
</svg>
