<svg width="92" height="21" viewBox="0 0 92 21" fill="none" xmlns="http://www.w3.org/2000/svg">
<path d="M7.92535 0.833333V16H5.3316V0.833333H7.92535ZM12.6858 0.833333V2.91667H0.612854V0.833333H12.6858Z" fill="white"/>
<path d="M16.2066 6.875V16H13.6962V4.72917H16.092L16.2066 6.875ZM19.6545 4.65625L19.6337 6.98958C19.4809 6.96181 19.3142 6.94097 19.1337 6.92708C18.9601 6.91319 18.7865 6.90625 18.6129 6.90625C18.1823 6.90625 17.8038 6.96875 17.4774 7.09375C17.151 7.21181 16.8767 7.38542 16.6545 7.61458C16.4392 7.83681 16.2726 8.10764 16.1545 8.42708C16.0365 8.74653 15.967 9.10417 15.9462 9.5L15.3733 9.54167C15.3733 8.83333 15.4427 8.17708 15.5816 7.57292C15.7205 6.96875 15.9288 6.4375 16.2066 5.97917C16.4913 5.52083 16.8455 5.16319 17.2691 4.90625C17.6997 4.64931 18.1962 4.52083 18.7587 4.52083C18.9115 4.52083 19.0747 4.53472 19.2483 4.5625C19.4288 4.59028 19.5642 4.62153 19.6545 4.65625Z" fill="white"/>
<path d="M28.0087 13.3438V4.72917H30.5295V16H28.1545L28.0087 13.3438ZM28.3629 11L29.2066 10.9792C29.2066 11.7361 29.1233 12.434 28.9566 13.0729C28.7899 13.7049 28.533 14.2569 28.1858 14.7292C27.8385 15.1944 27.3941 15.559 26.8524 15.8229C26.3108 16.0799 25.6615 16.2083 24.9045 16.2083C24.3559 16.2083 23.8524 16.1285 23.3941 15.9688C22.9358 15.809 22.5399 15.5625 22.2066 15.2292C21.8802 14.8958 21.6267 14.4618 21.4462 13.9271C21.2656 13.3924 21.1754 12.7535 21.1754 12.0104V4.72917H23.6858V12.0312C23.6858 12.441 23.7344 12.7847 23.8316 13.0625C23.9288 13.3333 24.0608 13.5521 24.2274 13.7188C24.3941 13.8854 24.5885 14.0035 24.8108 14.0729C25.033 14.1424 25.2691 14.1771 25.5191 14.1771C26.2344 14.1771 26.7969 14.0382 27.2066 13.7604C27.6233 13.4757 27.9184 13.0938 28.092 12.6146C28.2726 12.1354 28.3629 11.5972 28.3629 11Z" fill="white"/>
<path d="M39.4254 12.9479C39.4254 12.6979 39.3629 12.4722 39.2379 12.2708C39.1129 12.0625 38.8733 11.875 38.5191 11.7083C38.1719 11.5417 37.658 11.3889 36.9774 11.25C36.3802 11.1181 35.8316 10.9618 35.3316 10.7812C34.8386 10.5938 34.4149 10.3681 34.0608 10.1042C33.7066 9.84028 33.4323 9.52778 33.2379 9.16667C33.0434 8.80556 32.9462 8.38889 32.9462 7.91667C32.9462 7.45833 33.0469 7.02431 33.2483 6.61458C33.4497 6.20486 33.7379 5.84375 34.1129 5.53125C34.4879 5.21875 34.9427 4.97222 35.4774 4.79167C36.0191 4.61111 36.6233 4.52083 37.2899 4.52083C38.2344 4.52083 39.0434 4.68056 39.717 5C40.3976 5.3125 40.9184 5.73958 41.2795 6.28125C41.6406 6.81597 41.8212 7.42014 41.8212 8.09375H39.3108C39.3108 7.79514 39.2344 7.51736 39.0816 7.26042C38.9358 6.99653 38.7136 6.78472 38.4149 6.625C38.1163 6.45833 37.7413 6.375 37.2899 6.375C36.8594 6.375 36.5017 6.44444 36.217 6.58333C35.9392 6.71528 35.7309 6.88889 35.592 7.10417C35.4601 7.31944 35.3941 7.55556 35.3941 7.8125C35.3941 8 35.4288 8.17014 35.4983 8.32292C35.5747 8.46875 35.6997 8.60417 35.8733 8.72917C36.0469 8.84722 36.283 8.95833 36.5816 9.0625C36.8872 9.16667 37.2691 9.26736 37.7274 9.36458C38.5886 9.54514 39.3281 9.77778 39.9462 10.0625C40.5712 10.3403 41.0504 10.7014 41.3837 11.1458C41.717 11.5833 41.8837 12.1389 41.8837 12.8125C41.8837 13.3125 41.7761 13.7708 41.5608 14.1875C41.3524 14.5972 41.0469 14.9549 40.6441 15.2604C40.2413 15.559 39.7587 15.7917 39.1962 15.9583C38.6406 16.125 38.0156 16.2083 37.3212 16.2083C36.3004 16.2083 35.4358 16.0278 34.7274 15.6667C34.0191 15.2986 33.4809 14.8299 33.1129 14.2604C32.7517 13.684 32.5712 13.0868 32.5712 12.4688H34.9983C35.0261 12.934 35.1545 13.3056 35.3837 13.5833C35.6198 13.8542 35.9115 14.0521 36.2587 14.1771C36.6129 14.2951 36.9774 14.3542 37.3524 14.3542C37.8038 14.3542 38.1823 14.2951 38.4879 14.1771C38.7934 14.0521 39.0261 13.8854 39.1858 13.6771C39.3455 13.4618 39.4254 13.2188 39.4254 12.9479Z" fill="white"/>
<path d="M49.2483 4.72917V6.5625H42.8941V4.72917H49.2483ZM44.7274 1.96875H47.2379V12.8854C47.2379 13.2326 47.2865 13.5 47.3837 13.6875C47.4879 13.8681 47.6302 13.9896 47.8108 14.0521C47.9913 14.1146 48.2031 14.1458 48.4462 14.1458C48.6198 14.1458 48.7865 14.1354 48.9462 14.1146C49.1059 14.0938 49.2344 14.0729 49.3316 14.0521L49.342 15.9688C49.1337 16.0312 48.8906 16.0868 48.6129 16.1354C48.342 16.184 48.0295 16.2083 47.6754 16.2083C47.099 16.2083 46.5886 16.1076 46.1441 15.9062C45.6997 15.6979 45.3524 15.3611 45.1024 14.8958C44.8524 14.4306 44.7274 13.8125 44.7274 13.0417V1.96875Z" fill="white"/>
<path d="M53.7066 6.89583V20.3333H51.1962V4.72917H53.5087L53.7066 6.89583ZM61.0504 10.2604V10.4792C61.0504 11.2986 60.9531 12.059 60.7587 12.7604C60.5712 13.4549 60.2899 14.0625 59.9149 14.5833C59.5469 15.0972 59.092 15.4965 58.5504 15.7812C58.0087 16.066 57.3837 16.2083 56.6754 16.2083C55.974 16.2083 55.3594 16.0799 54.8316 15.8229C54.3108 15.559 53.8698 15.1875 53.5087 14.7083C53.1476 14.2292 52.8559 13.6667 52.6337 13.0208C52.4184 12.3681 52.2656 11.6528 52.1754 10.875V10.0312C52.2656 9.20486 52.4184 8.45486 52.6337 7.78125C52.8559 7.10764 53.1476 6.52778 53.5087 6.04167C53.8698 5.55556 54.3108 5.18056 54.8316 4.91667C55.3524 4.65278 55.9601 4.52083 56.6545 4.52083C57.3629 4.52083 57.9913 4.65972 58.5399 4.9375C59.0886 5.20833 59.5504 5.59722 59.9254 6.10417C60.3004 6.60417 60.5816 7.20833 60.7691 7.91667C60.9566 8.61806 61.0504 9.39931 61.0504 10.2604ZM58.5399 10.4792V10.2604C58.5399 9.73958 58.4913 9.25694 58.3941 8.8125C58.2969 8.36111 58.1441 7.96528 57.9358 7.625C57.7274 7.28472 57.4601 7.02083 57.1337 6.83333C56.8142 6.63889 56.4288 6.54167 55.9774 6.54167C55.533 6.54167 55.1511 6.61806 54.8316 6.77083C54.5122 6.91667 54.2448 7.12153 54.0295 7.38542C53.8142 7.64931 53.6476 7.95833 53.5295 8.3125C53.4115 8.65972 53.3281 9.03819 53.2795 9.44792V11.4688C53.3629 11.9688 53.5052 12.4271 53.7066 12.8438C53.908 13.2604 54.1927 13.5938 54.5608 13.8438C54.9358 14.0868 55.4149 14.2083 55.9983 14.2083C56.4497 14.2083 56.8351 14.1111 57.1545 13.9167C57.474 13.7222 57.7344 13.4549 57.9358 13.1146C58.1441 12.7674 58.2969 12.3681 58.3941 11.9167C58.4913 11.4653 58.5399 10.9861 58.5399 10.4792Z" fill="white"/>
<path d="M65.8733 4.72917V16H63.3524V4.72917H65.8733ZM63.1858 1.77083C63.1858 1.38889 63.3108 1.07292 63.5608 0.822917C63.8177 0.565972 64.1719 0.4375 64.6233 0.4375C65.0677 0.4375 65.4184 0.565972 65.6754 0.822917C65.9323 1.07292 66.0608 1.38889 66.0608 1.77083C66.0608 2.14583 65.9323 2.45833 65.6754 2.70833C65.4184 2.95833 65.0677 3.08333 64.6233 3.08333C64.1719 3.08333 63.8177 2.95833 63.5608 2.70833C63.3108 2.45833 63.1858 2.14583 63.1858 1.77083Z" fill="white"/>
<path d="M71.3108 0V16H68.7899V0H71.3108Z" fill="white"/>
<path d="M73.5816 10.4896V10.25C73.5816 9.4375 73.6997 8.68403 73.9358 7.98958C74.1719 7.28819 74.5122 6.68056 74.9566 6.16667C75.408 5.64583 75.9566 5.24306 76.6024 4.95833C77.2552 4.66667 77.9913 4.52083 78.8108 4.52083C79.6372 4.52083 80.3733 4.66667 81.0191 4.95833C81.6719 5.24306 82.224 5.64583 82.6754 6.16667C83.1267 6.68056 83.4705 7.28819 83.7066 7.98958C83.9427 8.68403 84.0608 9.4375 84.0608 10.25V10.4896C84.0608 11.3021 83.9427 12.0556 83.7066 12.75C83.4705 13.4444 83.1267 14.0521 82.6754 14.5729C82.224 15.0868 81.6754 15.4896 81.0295 15.7812C80.3837 16.066 79.6511 16.2083 78.8316 16.2083C78.0052 16.2083 77.2656 16.066 76.6129 15.7812C75.967 15.4896 75.4184 15.0868 74.967 14.5729C74.5156 14.0521 74.1719 13.4444 73.9358 12.75C73.6997 12.0556 73.5816 11.3021 73.5816 10.4896ZM76.092 10.25V10.4896C76.092 10.9965 76.1441 11.4757 76.2483 11.9271C76.3524 12.3785 76.5156 12.7743 76.7379 13.1146C76.9601 13.4549 77.2448 13.7222 77.592 13.9167C77.9392 14.1111 78.3524 14.2083 78.8316 14.2083C79.2969 14.2083 79.6997 14.1111 80.0399 13.9167C80.3872 13.7222 80.6719 13.4549 80.8941 13.1146C81.1163 12.7743 81.2795 12.3785 81.3837 11.9271C81.4948 11.4757 81.5504 10.9965 81.5504 10.4896V10.25C81.5504 9.75 81.4948 9.27778 81.3837 8.83333C81.2795 8.38194 81.1129 7.98264 80.8837 7.63542C80.6615 7.28819 80.3767 7.01736 80.0295 6.82292C79.6892 6.62153 79.283 6.52083 78.8108 6.52083C78.3386 6.52083 77.9288 6.62153 77.5816 6.82292C77.2413 7.01736 76.9601 7.28819 76.7379 7.63542C76.5156 7.98264 76.3524 8.38194 76.2483 8.83333C76.1441 9.27778 76.092 9.75 76.092 10.25Z" fill="white"/>
<path d="M91.3316 4.72917V6.5625H84.9774V4.72917H91.3316ZM86.8108 1.96875H89.3212V12.8854C89.3212 13.2326 89.3698 13.5 89.467 13.6875C89.5712 13.8681 89.7136 13.9896 89.8941 14.0521C90.0747 14.1146 90.2865 14.1458 90.5295 14.1458C90.7031 14.1458 90.8698 14.1354 91.0295 14.1146C91.1892 14.0938 91.3177 14.0729 91.4149 14.0521L91.4254 15.9688C91.217 16.0312 90.974 16.0868 90.6962 16.1354C90.4254 16.184 90.1129 16.2083 89.7587 16.2083C89.1823 16.2083 88.6719 16.1076 88.2274 15.9062C87.783 15.6979 87.4358 15.3611 87.1858 14.8958C86.9358 14.4306 86.8108 13.8125 86.8108 13.0417V1.96875Z" fill="white"/>
</svg>
