<svg width="18" height="18" viewBox="0 0 18 18" fill="none" xmlns="http://www.w3.org/2000/svg">
<path d="M8.99999 17.3334C7.83332 17.3334 6.74305 17.1147 5.72916 16.6772C4.71527 16.2397 3.83332 15.6459 3.08332 14.8959C2.33332 14.1459 1.74305 13.2605 1.31249 12.2397C0.881934 11.2188 0.666656 10.1251 0.666656 8.95842C0.666656 7.79175 0.881934 6.70494 1.31249 5.698C1.74305 4.69105 2.33332 3.81258 3.08332 3.06258C3.83332 2.31258 4.71527 1.72578 5.72916 1.30216C6.74305 0.878554 7.83332 0.666748 8.99999 0.666748C10.1667 0.666748 11.2569 0.878554 12.2708 1.30216C13.2847 1.72578 14.1667 2.31258 14.9167 3.06258C15.6667 3.81258 16.2569 4.69105 16.6875 5.698C17.118 6.70494 17.3333 7.79175 17.3333 8.95842C17.3333 10.1251 17.118 11.2188 16.6875 12.2397C16.2569 13.2605 15.6667 14.1459 14.9167 14.8959C14.1667 15.6459 13.2847 16.2397 12.2708 16.6772C11.2569 17.1147 10.1667 17.3334 8.99999 17.3334ZM12.2917 5.87508H15.4167C14.9583 4.91675 14.3299 4.11814 13.5312 3.47925C12.7326 2.84036 11.8125 2.38897 10.7708 2.12508C11.118 2.63897 11.4132 3.19453 11.6562 3.79175C11.8993 4.38897 12.1111 5.08342 12.2917 5.87508ZM6.99999 5.87508H11.0417C10.8889 5.13897 10.6319 4.42717 10.2708 3.73967C9.90971 3.05217 9.4861 2.44453 8.99999 1.91675C8.55555 2.29175 8.18055 2.7848 7.87499 3.39592C7.56944 4.00703 7.27777 4.83342 6.99999 5.87508ZM2.16666 10.8542H5.47916C5.43749 10.4792 5.41319 10.1424 5.40624 9.84383C5.3993 9.54522 5.39582 9.25008 5.39582 8.95842C5.39582 8.61119 5.40277 8.30217 5.41666 8.03133C5.43055 7.7605 5.45832 7.45842 5.49999 7.12508H2.16666C2.06943 7.45842 2.00346 7.75703 1.96874 8.02092C1.93402 8.2848 1.91666 8.5973 1.91666 8.95842C1.91666 9.31953 1.93402 9.64244 1.96874 9.92717C2.00346 10.2119 2.06943 10.5209 2.16666 10.8542ZM7.22916 15.8751C6.88194 15.3473 6.58332 14.7779 6.33332 14.1668C6.08332 13.5556 5.87499 12.8681 5.70832 12.1043H2.58332C3.1111 13.0904 3.72221 13.8647 4.41666 14.4272C5.1111 14.9897 6.0486 15.4723 7.22916 15.8751ZM2.58332 5.87508H5.72916C5.88194 5.12508 6.07638 4.45494 6.31249 3.86467C6.5486 3.27439 6.84721 2.70147 7.20832 2.14592C6.16666 2.4098 5.25694 2.85425 4.47916 3.47925C3.70138 4.10425 3.06943 4.90286 2.58332 5.87508ZM8.99999 16.1251C9.4861 15.6251 9.89235 15.0522 10.2187 14.4063C10.5451 13.7605 10.8125 12.9931 11.0208 12.1043H6.99999C7.19444 12.9376 7.45485 13.6876 7.78124 14.3542C8.10763 15.0209 8.51388 15.6112 8.99999 16.1251ZM6.77082 10.8542H11.25C11.3055 10.4237 11.3403 10.073 11.3542 9.80217C11.368 9.53133 11.375 9.25008 11.375 8.95842C11.375 8.68064 11.368 8.41328 11.3542 8.15633C11.3403 7.89939 11.3055 7.55564 11.25 7.12508H6.77082C6.71527 7.55564 6.68055 7.89939 6.66666 8.15633C6.65277 8.41328 6.64582 8.68064 6.64582 8.95842C6.64582 9.25008 6.65277 9.53133 6.66666 9.80217C6.68055 10.073 6.71527 10.4237 6.77082 10.8542ZM10.7917 15.8543C11.7917 15.5348 12.691 15.0556 13.4896 14.4168C14.2882 13.7779 14.9305 13.007 15.4167 12.1043H12.3125C12.1319 12.8543 11.9201 13.5348 11.6771 14.1459C11.434 14.757 11.1389 15.3265 10.7917 15.8543ZM12.5 10.8542H15.8333C15.9305 10.5209 15.9965 10.2119 16.0312 9.92717C16.066 9.64244 16.0833 9.31953 16.0833 8.95842C16.0833 8.5973 16.066 8.2848 16.0312 8.02092C15.9965 7.75703 15.9305 7.45842 15.8333 7.12508H12.5208C12.5625 7.61119 12.5903 7.98272 12.6042 8.23967C12.618 8.49661 12.625 8.73619 12.625 8.95842C12.625 9.26397 12.6146 9.55217 12.5937 9.823C12.5729 10.0938 12.5417 10.4376 12.5 10.8542Z" fill="white"/>
</svg>
